#!OML:ASF E:\Steps\Project 1\Capture day 1\Session 2\Subject.ASF
:FULLY-SPECIFIED
:DEGREES
553
root 9.24233 17.0684 -0.117037 -153.937 0.535627 177.028
lowerback -23.5677 -0.332386 -10.0195
upperback 0.865516 2.39176 -2.62307
thorax 14.0239 0.318004 3.50404
lowerneck -3.13053 -1.76516 -2.17242
upperneck 20.8891 -4.83604 5.21518
head 7.0556 -2.64604 1.6446
rclavicle -6.36111e-015 1.51076e-014
rhumerus -35.1863 -6.97425 -83.646
rradius 43.4581
rwrist -9.47327
rhand -9.11337 -51.2444
rfingers 7.12502
rthumb 16.8373 -80.5344
lclavicle -6.36111e-015 1.51076e-014
lhumerus -31.001 5.21259 77.4166
lradius 26.6159
lwrist -3.48739
lhand -20.789 -13.7442
lfingers 7.12502
lthumb 5.57808 16.1624
rfemur -18.3677 5.65791 17.9501
rtibia 17.4822
rfoot -4.76449 -4.69411
rtoes -32.3592
lfemur -59.8498 -7.94531 -21.3202
ltibia 52.2104
lfoot -15.0866 0.0471424
ltoes -22.7336
554
root 9.21871 17.1329 -0.185065 -153.769 0.752234 177.029
lowerback -23.5856 -0.76151 -9.9535
upperback 0.926015 2.57213 -2.67572
thorax 14.1451 0.711641 3.54821
lowerneck -3.5699 -1.85459 -1.99419
upperneck 20.8927 -4.90732 5.07837
head 7.13136 -2.65434 1.55894
rclavicle -3.77691e-015 -1.90833e-014
rhumerus -35.0832 -7.51662 -83.3495
rradius 43.1345
rwrist -9.28588
rhand -9.47906 -51.1575
rfingers 7.12502
rthumb 16.4853 -80.4772
lclavicle -3.77691e-015 -1.90833e-014
lhumerus -30.565 5.08031 77.5913
lradius 26.6259
lwrist -3.37511
lhand -20.6075 -14.2228
lfingers 7.12502
lthumb 5.75334 15.679
rfemur -19.4779 5.32422 17.6715
rtibia 19.2334
rfoot -4.0859 -4.46725
rtoes -32.9661
lfemur -59.1548 -7.92733 -21.3977
ltibia 51.2253
lfoot -15.3064 0.125017
ltoes -22.7439
555
root 9.19676 17.1994 -0.245916 -153.534 0.977471 177.017
lowerback -23.6749 -0.825369 -10.1377
upperback 0.713707 2.56597 -2.71783
thorax 13.9409 0.725185 3.60639
lowerneck -2.71668 -1.8091 -1.72358
upperneck 20.3686 -4.829 4.98492
head 6.79968 -2.62937 1.50491
rclavicle -9.14409e-015 8.74653e-015
rhumerus -35.6812 -7.97402 -83.0372
rradius 43.0086
rwrist -9.13034
rhand -9.21914 -51.6154
rfingers 7.12502
rthumb 16.7355 -80.914
lclavicle -9.14409e-015 8.74653e-015
lhumerus -30.9583 4.9058 77.624
lradius 26.9309
lwrist -3.31084
lhand -20.2608 -14.0473
lfingers 7.12502
lthumb 6.08801 15.8452
rfemur -20.8092 4.85583 17.4251
rtibia 21.1895
rfoot -3.44401 -4.10079
rtoes -34.74
lfemur -58.5945 -7.88983 -21.4784
ltibia 50.2715
lfoot -14.884 0.253296
ltoes -21.9421
556
root 9.17785 17.2708 -0.295274 -153.4 1.24144 177.184
lowerback -23.436 -0.790924 -10.1498
upperback 0.575474 2.58542 -2.76057
thorax 13.6392 0.759794 3.56614
lowerneck -2.93591 -1.85701 -1.64364
upperneck 20.7048 -4.9816 5.06302
head 6.95351 -2.69604 1.49931
rclavicle 2.46493e-014 7.15625e-015
rhumerus -36.0379 -8.35786 -82.8374
rradius 42.8624
rwrist -9.0821
rhand -8.97274 -51.3094
rfingers 7.12502
rthumb 16.9727 -80.5878
lclavicle 2.46493e-014 7.15625e-015
lhumerus -31.2371 5.02002 77.5819
lradius 27.3143
lwrist -3.51175
lhand -20.0801 -13.9821
lfingers 7.12502
lthumb 6.26244 15.9053
rfemur -22.3036 4.61066 17.4149
rtibia 23.5286
rfoot -2.96076 -3.88335
rtoes -36.0951
lfemur -57.9471 -7.59375 -21.4172
ltibia 49.2432
lfoot -14.7921 0.352666
ltoes -22.908
557
root 9.15868 17.3398 -0.354541 -153.408 1.4366 177.319
lowerback -23.2023 -0.774755 -10.1508
upperback 0.509447 2.57388 -2.7807
thorax 13.43 0.769784 3.53441
lowerneck -3.269 -1.8399 -1.68964
upperneck 21.03 -5.00619 5.10999
head 7.1214 -2.7047 1.51258
rclavicle -1.03368e-014 -9.54166e-015
rhumerus -36.4649 -8.65966 -82.5603
rradius 42.8303
rwrist -9.0162
rhand -9.04935 -50.5363
rfingers 7.12502
rthumb 16.8989 -79.821
lclavicle -1.03368e-014 -9.54166e-015
lhumerus -31.3457 4.99876 77.6116
lradius 27.4857
lwrist -3.65215
lhand -19.9796 -14.3981
lfingers 7.12502
lthumb 6.35947 15.4865
rfemur -23.5398 4.20145 17.4606
rtibia 25.8064
rfoot -2.66058 -3.54251
rtoes -37.3608
lfemur -57.0385 -7.33676 -21.4407
ltibia 48.1326
lfoot -14.5627 0.63214
ltoes -25.7304
558
root 9.13497 17.3961 -0.427298 -153.253 1.54015 177.329
lowerback -23.4662 -0.870225 -10.1392
upperback 0.509066 2.4926 -2.80346
thorax 13.5931 0.729169 3.48133
lowerneck -3.16218 -1.81328 -1.65581
upperneck 20.7419 -4.93882 5.17497
head 7.00689 -2.6619 1.53656
rclavicle 3.57812e-015 -1.82882e-014
rhumerus -36.7136 -8.78182 -82.314
rradius 42.7217
rwrist -9.1472
rhand -9.10344 -50.9735
rfingers 7.12502
rthumb 16.8469 -80.2627
lclavicle 3.57812e-015 -1.82882e-014
lhumerus -31.334 4.71402 77.7646
lradius 27.7271
lwrist -3.49577
lhand -19.8403 -14.1732
lfingers 7.12502
lthumb 6.494 15.7073
rfemur -24.8904 3.41704 17.4358
rtibia 28.207
rfoot -2.48674 -3.12341
rtoes -37.4069
lfemur -56.2917 -7.26284 -21.6296
ltibia 47.0934
lfoot -14.2666 0.830081
ltoes -29.4363
559
root 9.11144 17.4502 -0.491005 -153.076 1.69583 177.376
lowerback -23.6906 -0.974946 -10.1569
upperback 0.547663 2.38947 -2.77506
thorax 13.7787 0.668494 3.49346
lowerneck -3.20767 -1.74061 -1.61196
upperneck 20.436 -4.76851 5.15183
head 6.90764 -2.56624 1.53581
rclavicle 7.95139e-016 -4.77083e-014
rhumerus -36.7588 -8.8071 -82.1282
rradius 42.5506
rwrist -9.32358
rhand -9.10682 -51.8346
rfingers 7.12502
rthumb 16.8436 -81.124
lclavicle 7.95139e-016 -4.77083e-014
lhumerus -31.1037 4.62152 77.9209
lradius 27.86
lwrist -3.41826
lhand -19.712 -13.8517
lfingers 7.12502
lthumb 6.61782 16.0249
rfemur -26.4004 2.85056 17.4278
rtibia 30.8816
rfoot -2.27934 -3.354
rtoes -34.9911
lfemur -55.6791 -7.17915 -21.7445
ltibia 46.162
lfoot -14.0627 0.961101
ltoes -31.5097
560
root 9.09239 17.5066 -0.550073 -153.085 1.98288 177.387
lowerback -23.6712 -1.02626 -10.3086
upperback 0.632936 2.36151 -2.76425
thorax 13.8683 0.634594 3.58027
lowerneck -3.85945 -1.73888 -1.73446
upperneck 20.9856 -4.81771 5.16818
head 7.20682 -2.58628 1.54489
rclavicle -1.74931e-014 -2.54444e-014
rhumerus -36.7999 -8.92328 -81.912
rradius 42.4483
rwrist -9.39138
rhand -8.88573 -52.226
rfingers 7.12502
rthumb 17.0564 -81.4972
lclavicle -1.74931e-014 -2.54444e-014
lhumerus -30.6483 4.45539 78.0815
lradius 27.7311
lwrist -3.28559
lhand -19.7152 -13.8956
lfingers 7.12502
lthumb 6.61472 15.9811
rfemur -27.8448 2.43383 17.3807
rtibia 33.7162
rfoot -1.86896 -4.08485
rtoes -31.7538
lfemur -54.8036 -7.02766 -21.8985
ltibia 45.1178
lfoot -13.9249 1.0217
ltoes -31.4569
561
root 9.07386 17.561 -0.605976 -153.075 2.27633 177.365
lowerback -23.6863 -1.09256 -10.4006
upperback 0.697992 2.3127 -2.798
thorax 13.961 0.600619 3.57625
lowerneck -3.22534 -1.57536 -1.37431
upperneck 19.9406 -4.38004 4.78768
head 6.72406 -2.37 1.41008
rclavicle -1.59028e-014 -3.02153e-014
rhumerus -36.8627 -8.96584 -81.7368
rradius 42.3168
rwrist -9.412
rhand -8.48182 -52.3613
rfingers 7.12502
rthumb 17.4452 -81.5985
lclavicle -1.59028e-014 -3.02153e-014
lhumerus -30.3976 3.9457 78.2642
lradius 27.8212
lwrist -2.80459
lhand -19.877 -13.5684
lfingers 7.12502
lthumb 6.45856 16.3131
rfemur -29.5518 1.85441 17.389
rtibia 37.0415
rfoot -2.89156 -4.90863
rtoes -34.2262
lfemur -53.8952 -6.83529 -22.1026
ltibia 43.9641
lfoot -13.6868 0.8388
ltoes -28.886
562
root 9.05434 17.6163 -0.655653 -153.094 2.47589 177.376
lowerback -23.5354 -1.18069 -10.4428
upperback 0.684075 2.18541 -2.79429
thorax 13.8742 0.545258 3.55774
lowerneck -3.89553 -1.60793 -1.72558
upperneck 20.9845 -4.59312 4.96468
head 7.19904 -2.49402 1.49381
rclavicle -1.19271e-015 -2.06736e-014
rhumerus -37.1221 -8.97272 -81.5622
rradius 42.2369
rwrist -9.38798
rhand -8.25729 -52.3604
rfingers 7.12502
rthumb 17.6613 -81.5783
lclavicle -1.19271e-015 -2.06736e-014
lhumerus -30.41 3.45304 78.4339
lradius 28.0339
lwrist -2.38135
lhand -19.8357 -12.683
lfingers 7.12502
lthumb 6.49847 17.1973
rfemur -31.3012 1.32887 17.4794
rtibia 40.5985
rfoot -3.96696 -5.97371
rtoes -35.672
lfemur -53.0031 -6.6821 -22.2465
ltibia 42.836
lfoot -13.4159 0.743322
ltoes -27.3971
563
root 9.03211 17.6735 -0.708179 -153.316 2.74158 177.315
lowerback -23.1673 -1.22387 -10.5491
upperback 0.68064 2.10666 -2.81594
thorax 13.6688 0.513808 3.55914
lowerneck -3.39566 -1.39919 -1.38854
upperneck 20.5514 -4.2414 4.70755
head 6.94496 -2.32994 1.38905
rclavicle -3.97569e-015 5.40694e-014
rhumerus -37.4648 -8.91513 -81.3674
rradius 42.1807
rwrist -9.43102
rhand -8.22036 -52.5913
rfingers 7.12502
rthumb 17.6968 -81.806
lclavicle -3.97569e-015 5.40694e-014
lhumerus -30.4702 3.09943 78.564
lradius 28.2116
lwrist -2.19788
lhand -19.8094 -12.6106
lfingers 7.12502
lthumb 6.52381 17.269
rfemur -32.7055 0.918424 17.4066
rtibia 43.7725
rfoot -4.96484 -6.88285
rtoes -36.4997
lfemur -51.8405 -6.56957 -22.5026
ltibia 41.6467
lfoot -13.1989 0.743373
ltoes -26.7854
564
root 9.00944 17.7279 -0.76083 -153.52 3.06733 177.315
lowerback -22.9566 -1.23756 -10.543
upperback 0.744869 2.0606 -2.84821
thorax 13.6324 0.492466 3.4985
lowerneck -3.5316 -1.32682 -1.51956
upperneck 20.603 -4.17211 4.89421
head 6.98907 -2.291 1.47413
rclavicle -1.11319e-014 -5.56597e-014
rhumerus -37.6091 -8.77667 -81.2054
rradius 42.067
rwrist -9.52682
rhand -8.23826 -53.0899
rfingers 7.12502
rthumb 17.6796 -82.3061
lclavicle -1.11319e-014 -5.56597e-014
lhumerus -30.3873 2.99963 78.592
lradius 28.2834
lwrist -2.25456
lhand -20.0011 -13.5993
lfingers 7.12502
lthumb 6.3388 16.2859
rfemur -34.1262 0.572522 17.3574
rtibia 46.7439
rfoot -5.65035 -7.67017
rtoes -36.8535
lfemur -50.7433 -6.42911 -22.6743
ltibia 40.4797
lfoot -13.0514 0.760863
ltoes -25.0965
565
root 8.99267 17.7775 -0.802968 -153.444 3.21077 177.473
lowerback -22.9869 -1.32547 -10.4215
upperback 0.802355 1.90432 -2.80136
thorax 13.7393 0.416759 3.43034
lowerneck -3.74971 -1.33587 -1.75488
upperneck 20.5096 -4.19714 5.21684
head 7.00852 -2.28543 1.61417
rclavicle 3.18055e-015 -4.53229e-014
rhumerus -37.5594 -8.87134 -81.0494
rradius 41.8532
rwrist -9.34863
rhand -8.29388 -52.606
rfingers 7.12502
rthumb 17.6261 -81.8271
lclavicle 3.18055e-015 -4.53229e-014
lhumerus -30.0577 2.92989 78.633
lradius 28.186
lwrist -2.27775
lhand -19.9769 -14.0531
lfingers 7.12502
lthumb 6.36216 15.8314
rfemur -35.8892 0.246914 17.5707
rtibia 49.8039
rfoot -6.25449 -8.36346
rtoes -36.1523
lfemur -50.1721 -6.28698 -22.5872
ltibia 39.5423
lfoot -12.9417 1.0059
ltoes -25.6563
566
root 8.97555 17.8239 -0.841414 -153.324 3.20636 177.577
lowerback -22.9621 -1.47045 -10.3372
upperback 0.830548 1.67207 -2.73547
thorax 13.7883 0.30813 3.37867
lowerneck -3.51231 -1.20699 -1.70728
upperneck 19.9351 -3.92156 5.19526
head 6.76867 -2.14255 1.62483
rclavicle -1.11319e-014 -1.36764e-013
rhumerus -37.5028 -9.06253 -80.8598
rradius 41.5163
rwrist -8.97785
rhand -8.2332 -51.5325
rfingers 7.12502
rthumb 17.6844 -80.7483
lclavicle -1.11319e-014 -1.36764e-013
lhumerus -29.8294 2.50661 78.808
lradius 28.2878
lwrist -2.02702
lhand -19.7325 -13.2428
lfingers 7.12502
lthumb 6.59803 16.6344
rfemur -37.6318 -0.233541 17.7923
rtibia 52.764
rfoot -6.87194 -8.68033
rtoes -35.481
lfemur -49.7034 -6.20872 -22.564
ltibia 38.6943
lfoot -12.7865 1.18084
ltoes -26.6567
